<svg id="visual" viewBox="0 0 900 600" width="900" height="600" xmlns="http://www.w3.org/2000/svg" xmlns:xlink="http://www.w3.org/1999/xlink" version="1.1"><rect x="0" y="0" width="900" height="600" fill="#001220"></rect><path d="M0 353L21.5 354.2C43 355.3 86 357.7 128.8 367.2C171.7 376.7 214.3 393.3 257.2 393.8C300 394.3 343 378.7 385.8 384.5C428.7 390.3 471.3 417.7 514.2 424.3C557 431 600 417 642.8 406.5C685.7 396 728.3 389 771.2 383.8C814 378.7 857 375.3 878.5 373.7L900 372L900 601L878.5 601C857 601 814 601 771.2 601C728.3 601 685.7 601 642.8 601C600 601 557 601 514.2 601C471.3 601 428.7 601 385.8 601C343 601 300 601 257.2 601C214.3 601 171.7 601 128.8 601C86 601 43 601 21.5 601L0 601Z" fill="#fa7268"></path><path d="M0 456L21.5 453.5C43 451 86 446 128.8 448.5C171.7 451 214.3 461 257.2 458.8C300 456.7 343 442.3 385.8 433.3C428.7 424.3 471.3 420.7 514.2 420.2C557 419.7 600 422.3 642.8 429.8C685.7 437.3 728.3 449.7 771.2 452C814 454.3 857 446.7 878.5 442.8L900 439L900 601L878.5 601C857 601 814 601 771.2 601C728.3 601 685.7 601 642.8 601C600 601 557 601 514.2 601C471.3 601 428.7 601 385.8 601C343 601 300 601 257.2 601C214.3 601 171.7 601 128.8 601C86 601 43 601 21.5 601L0 601Z" fill="#ef5f67"></path><path d="M0 499L21.5 491C43 483 86 467 128.8 464C171.7 461 214.3 471 257.2 475C300 479 343 477 385.8 473.3C428.7 469.7 471.3 464.3 514.2 466.7C557 469 600 479 642.8 475.8C685.7 472.7 728.3 456.3 771.2 450.7C814 445 857 450 878.5 452.5L900 455L900 601L878.5 601C857 601 814 601 771.2 601C728.3 601 685.7 601 642.8 601C600 601 557 601 514.2 601C471.3 601 428.7 601 385.8 601C343 601 300 601 257.2 601C214.3 601 171.7 601 128.8 601C86 601 43 601 21.5 601L0 601Z" fill="#e34c67"></path><path d="M0 532L21.5 525.8C43 519.7 86 507.3 128.8 501.2C171.7 495 214.3 495 257.2 496.3C300 497.7 343 500.3 385.8 499.3C428.7 498.3 471.3 493.7 514.2 498.8C557 504 600 519 642.8 520C685.7 521 728.3 508 771.2 500.8C814 493.7 857 492.3 878.5 491.7L900 491L900 601L878.5 601C857 601 814 601 771.2 601C728.3 601 685.7 601 642.8 601C600 601 557 601 514.2 601C471.3 601 428.7 601 385.8 601C343 601 300 601 257.2 601C214.3 601 171.7 601 128.8 601C86 601 43 601 21.5 601L0 601Z" fill="#d53867"></path><path d="M0 565L21.5 559.7C43 554.3 86 543.7 128.8 543.3C171.7 543 214.3 553 257.2 556.5C300 560 343 557 385.8 555.3C428.7 553.7 471.3 553.3 514.2 556.3C557 559.3 600 565.7 642.8 568.5C685.7 571.3 728.3 570.7 771.2 568.5C814 566.3 857 562.7 878.5 560.8L900 559L900 601L878.5 601C857 601 814 601 771.2 601C728.3 601 685.7 601 642.8 601C600 601 557 601 514.2 601C471.3 601 428.7 601 385.8 601C343 601 300 601 257.2 601C214.3 601 171.7 601 128.8 601C86 601 43 601 21.5 601L0 601Z" fill="#c62368"></path></svg>